# xmcd CD database file
# Copyright (C) 1993-1998 Ti Kan
# 
# Track frame offsets:
#     182
#     13092
#     28220
#     41942
#     54297
#     70085
#     84495
#     97275
#     111267
#     122707
# 
# Disc length: 1790 seconds
# 
# Revision: 1
# Processed by: cddbd v1.4b41PL1 Copyright (c) Steve Scherf et al.
# Submitted via: DiscPlay 4.0.4
# 
DISCID=8a06fc0a
DTITLE=Ray Charles - I've Got A Woman and Other Hits
DYEAR=1900
DGENRE=
TTITLE0=I've Got A Woman
TTITLE1=Drown In My Own Tears
TTITLE2=A Fool For You
TTITLE3=It Should've Been Me
TTITLE4=The Right Time
TTITLE5=What'd I Say
TTITLE6=Greenbacks
TTITLE7=Come Back
TTITLE8=This Little Girl of Mine
TTITLE9=Hallelujah, I Love Her So
EXTD=
EXTT0=
EXTT1=
EXTT2=
EXTT3=
EXTT4=
EXTT5=
EXTT6=
EXTT7=
EXTT8=
EXTT9=
PLAYORDER=
